<svg width="16" height="12" viewBox="0 0 16 12" fill="none" xmlns="http://www.w3.org/2000/svg">
<path fill-rule="evenodd" clip-rule="evenodd" d="M8.30052 2.69638C10.5349 2.69648 12.6839 3.55504 14.3033 5.09459C14.4252 5.21345 14.6201 5.21195 14.7402 5.09123L15.9059 3.91482C15.9667 3.85359 16.0006 3.77065 16.0001 3.68435C15.9996 3.59806 15.9647 3.51552 15.9032 3.45501C11.6529 -0.618303 4.94749 -0.618303 0.697169 3.45501C0.635599 3.51547 0.60067 3.59799 0.600105 3.68428C0.59953 3.77058 0.633381 3.85354 0.694144 3.91482L1.86015 5.09123C1.98016 5.21214 2.17523 5.21364 2.2971 5.09459C3.91667 3.55493 6.06589 2.69638 8.30052 2.69638ZM8.30052 6.52377C9.52819 6.5237 10.712 6.98001 11.622 7.80405C11.7451 7.921 11.939 7.91846 12.059 7.79833L13.2233 6.62192C13.2846 6.56021 13.3187 6.4765 13.3178 6.38952C13.3169 6.30253 13.2812 6.21953 13.2186 6.15908C10.4474 3.58134 6.15594 3.58134 3.38478 6.15908C3.32218 6.21953 3.28647 6.30257 3.28565 6.38959C3.28482 6.4766 3.31897 6.5603 3.38041 6.62192L4.54439 7.79833C4.66437 7.91846 4.85826 7.921 4.98134 7.80405C5.89075 6.98055 7.07366 6.52428 8.30052 6.52377ZM10.5381 9.33137C10.6003 9.27026 10.6346 9.18616 10.6328 9.09893C10.6311 9.0117 10.5934 8.92907 10.5286 8.87055C9.24242 7.78265 7.35862 7.78265 6.07239 8.87055C6.00763 8.92903 5.96987 9.01163 5.96802 9.09886C5.96618 9.18609 6.00041 9.27021 6.06264 9.33137L8.077 11.3639C8.13604 11.4236 8.21653 11.4572 8.30052 11.4572C8.38451 11.4572 8.46499 11.4236 8.52403 11.3639L10.5381 9.33137Z" fill="#343434"/>
</svg>
